<svg width="266" height="325" viewBox="0 0 266 325" fill="none" xmlns="http://www.w3.org/2000/svg">
<path d="M132 128C109.092 128 90.823 122.463 90.823 149.208C90.823 167.757 99.7552 183.866 112.872 192L97.6616 199.049L57.1855 217.822C53.2753 219.777 51.3237 223.093 51.3237 227.785V272.363C51.6454 277.936 54.9894 283.131 60.4112 283.219H204.41C210.6 282.68 213.731 277.695 213.792 272.363V227.785C213.792 223.093 211.841 219.777 207.931 217.822L168.92 199.049L152.708 191.368C165.286 183.051 173.78 167.29 173.78 149.208C173.779 122.463 154.908 128 132 128Z" fill="#CA7667"/>
<path d="M81.2118 22.5734C77.2858 22.6599 73.1015 26.5235 69.4987 32.0674C71.5118 30.6065 73.6385 29.3089 75.8585 28.1869C65.7295 35.6706 60.9133 55.0034 60.7506 67.3726C64.9464 61.2822 73.6557 51.3128 81.75 56.0432C72.4763 54.1155 66.6005 68.3191 63.6754 74.8154C70.9811 71.8173 76.3258 67.0792 86.875 66.9604C76.4744 73.815 72.7921 81.32 68.8004 88.7954C76.288 84.1493 81.7045 81.4314 86.5867 80.3946C90.9695 75.1319 95.5586 69.7945 100.593 65.4213C104.37 62.1413 108.452 59.3747 112.884 57.72C107.501 42.9491 99.1859 29.2673 84.1754 23.2896C83.2144 22.7771 82.2215 22.551 81.2118 22.5734ZM117.49 62.3456C112.984 63.3995 108.659 66.0526 104.374 69.7743C98.7589 74.6517 93.3703 81.2479 88.0803 87.6167C82.7903 93.9858 77.6317 100.137 71.9727 104.179C67.6341 107.278 62.6334 109.036 57.5542 108.204C58.4777 112.838 60.7144 118.842 63.7619 124.354C67.8154 131.685 73.3828 138.237 78.01 140.559C80.1359 141.625 82.035 141.653 84.8102 140.957C87.5848 140.261 91.0413 138.728 95.3043 136.946C103.83 133.381 115.633 128.958 133 128.958C150.367 128.958 162.17 133.381 170.696 136.946C174.96 138.728 178.416 140.261 181.191 140.957C183.965 141.653 185.864 141.625 187.99 140.558C192.617 138.237 198.185 131.685 202.238 124.354C205.286 118.842 207.523 112.838 208.446 108.203C203.367 109.036 198.366 107.278 194.027 104.179C188.368 100.137 183.21 93.9858 177.92 87.6167C172.63 81.2476 167.241 74.6517 161.625 69.7743C157.341 66.0523 153.015 63.3995 148.51 62.3453C149.478 66.8188 148.486 70.7897 146.077 73.5514C142.855 77.2462 137.864 78.7748 133 78.7748C128.136 78.7748 123.144 77.2462 119.922 73.5514C117.513 70.7897 116.521 66.8185 117.489 62.345L117.49 62.3456ZM153.698 73.7814C156.419 73.684 159.371 77.1575 156.236 80.9772C161.466 76.1469 166.125 82.9004 160.66 85.4001C156.413 87.3428 152.336 89.6997 148.508 92.4021C148.843 93.4323 149.014 94.5086 149.016 95.5918C149.016 98.8596 148.132 101.838 145.531 104.143L145.153 104.481L145.138 104.988L145.102 106.396C149.518 109.789 154.466 112.514 160.04 114.409C166.472 116.595 161.771 124.464 154.94 119.506C160.717 125.482 152.848 130.047 150.368 124.078C148.886 120.513 147.049 117.1 144.916 113.864L144.914 113.939C144.432 114.229 143.425 114.785 141.936 115.319V109.098H138.944V116.012C137.663 116.315 136.818 116.55 135.14 116.633V110.062H131.506V116.649C129.905 116.588 129.095 116.389 127.817 116.122V109.098H124.824V115.505C122.939 114.908 121.651 114.24 121.08 113.916L121.076 113.82C118.946 117.053 117.111 120.463 115.63 124.024C113.149 129.992 105.281 125.428 111.058 119.452C104.227 124.41 99.5251 116.538 105.957 114.352C111.503 112.467 116.433 109.764 120.831 106.395L120.781 104.894L120.765 104.398L120.396 104.068C117.856 101.776 116.984 98.81 116.984 95.58C116.984 94.5031 117.154 93.4508 117.475 92.4415C113.652 89.7461 109.581 87.3976 105.341 85.4587C99.8755 82.9584 104.532 76.2049 109.761 81.0346C106.695 77.2978 109.451 73.891 112.12 73.8359C113.248 73.8125 114.359 74.3875 115.011 75.7853C116.847 79.7267 118.87 83.483 121.109 87.0004C123.963 84.4475 128.071 82.7908 132.709 82.7236H133C137.742 82.7236 141.95 84.3847 144.861 86.9773C147.111 83.4513 149.144 79.6861 150.987 75.7312C151.604 74.407 152.633 73.8199 153.698 73.7817L153.698 73.7814ZM122.974 93.9246C121.538 93.9425 120.451 94.5345 120.398 96.2565C120.398 98.9967 122.616 101.221 125.358 101.221C128.099 101.221 130.322 98.9967 130.322 96.2565C130.322 96.2565 125.916 93.8878 122.974 93.9246ZM143.033 93.9246C140.093 93.8874 135.686 96.2565 135.686 96.2565C135.686 98.9967 137.909 101.221 140.65 101.221C143.39 101.221 145.61 98.9967 145.61 96.2565C145.557 94.5345 144.469 93.9425 143.033 93.9246ZM132.996 99.9977L130.436 105.712H135.557L132.996 99.9977Z" fill="#CA7667"/>
</svg>
