<svg width="44" height="44" viewBox="0 0 44 44" fill="none" xmlns="http://www.w3.org/2000/svg">
<path d="M18.3334 27.4998L27.8484 21.9998L18.3334 16.4998V27.4998ZM39.5267 13.1448C39.765 14.0065 39.93 15.1615 40.04 16.6282C40.1684 18.0948 40.2234 19.3598 40.2234 20.4598L40.3334 21.9998C40.3334 26.0148 40.04 28.9665 39.5267 30.8548C39.0684 32.5048 38.005 33.5682 36.355 34.0265C35.4934 34.2648 33.9167 34.4298 31.4967 34.5398C29.1134 34.6682 26.9317 34.7232 24.915 34.7232L22 34.8332C14.3184 34.8332 9.53335 34.5398 7.64502 34.0265C5.99502 33.5682 4.93169 32.5048 4.47335 30.8548C4.23502 29.9932 4.07002 28.8382 3.96002 27.3715C3.83169 25.9048 3.77669 24.6398 3.77669 23.5398L3.66669 21.9998C3.66669 17.9848 3.96002 15.0332 4.47335 13.1448C4.93169 11.4948 5.99502 10.4315 7.64502 9.97317C8.50669 9.73484 10.0834 9.56984 12.5034 9.45984C14.8867 9.3315 17.0684 9.2765 19.085 9.2765L22 9.1665C29.6817 9.1665 34.4667 9.45984 36.355 9.97317C38.005 10.4315 39.0684 11.4948 39.5267 13.1448Z" fill="white"/>
</svg>
