<svg width="34" height="35" viewBox="0 0 34 35" fill="none" xmlns="http://www.w3.org/2000/svg">
<path d="M18.4563 2.9183C19.4901 2.91421 20.5239 2.92491 21.5574 2.95038L21.8323 2.96059C22.1496 2.97226 22.4627 2.98684 22.8409 3.00434C24.3483 3.07726 25.3768 3.32226 26.2792 3.68247C27.2142 4.05288 28.0018 4.55455 28.7895 5.36538C29.5097 6.09397 30.0671 6.9753 30.4229 7.94809C30.7728 8.87705 31.0108 9.93726 31.0817 11.4889C31.0987 11.8768 31.1128 12.2006 31.1242 12.5273L31.1327 12.8102C31.1578 13.8736 31.1687 14.9373 31.1653 16.001L31.1667 17.0889V18.9993C31.1702 20.0635 31.1593 21.1277 31.1341 22.1916L31.1256 22.4746C31.1143 22.8012 31.1001 23.1235 31.0831 23.5129C31.0123 25.0645 30.7714 26.1233 30.4229 27.0523C30.0683 28.0261 29.5107 28.9081 28.7895 29.6364C28.0811 30.3777 27.2245 30.9515 26.2792 31.3179C25.3768 31.6781 24.3483 31.9231 22.8409 31.996C22.4627 32.0135 22.1496 32.0281 21.8323 32.0398L21.5574 32.0485C20.5239 32.0744 19.4901 32.0856 18.4563 32.0821L17.3995 32.0835H15.5451C14.5113 32.0871 13.4775 32.0759 12.444 32.05L12.1692 32.0412C11.8329 32.0287 11.4966 32.0141 11.1605 31.9975C9.65317 31.9245 8.62467 31.6766 7.72084 31.3179C6.77547 30.9523 5.91917 30.3785 5.21192 29.6364C4.4909 28.9077 3.93299 28.0258 3.57709 27.0523C3.22717 26.1233 2.98917 25.0645 2.91834 23.5129C2.90256 23.1668 2.88839 22.8207 2.87584 22.4746L2.86875 22.1916C2.84264 21.1278 2.83083 20.0636 2.83334 18.9993V16.001C2.82938 14.9373 2.83977 13.8736 2.8645 12.8102L2.87442 12.5273C2.88575 12.2006 2.89992 11.8768 2.91692 11.4889C2.98775 9.9358 3.22575 8.87851 3.57567 7.94809C3.93178 6.97483 4.49079 6.09374 5.21334 5.36684C5.9201 4.62419 6.77587 4.04934 7.72084 3.68247C8.62467 3.32226 9.65175 3.07726 11.1605 3.00434L12.1692 2.96059L12.444 2.9533C13.477 2.92643 14.5103 2.91427 15.5437 2.91684L18.4563 2.9183ZM17 10.21C16.0615 10.1963 15.1297 10.3748 14.2587 10.7351C13.3878 11.0953 12.5951 11.6302 11.9267 12.3086C11.2583 12.987 10.7276 13.7953 10.3653 14.6867C10.003 15.5781 9.8165 16.5347 9.8165 17.5009C9.8165 18.4671 10.003 19.4237 10.3653 20.3151C10.7276 21.2065 11.2583 22.0148 11.9267 22.6932C12.5951 23.3716 13.3878 23.9065 14.2587 24.2667C15.1297 24.627 16.0615 24.8055 17 24.7918C18.8786 24.7918 20.6803 24.0236 22.0087 22.6562C23.3371 21.2887 24.0833 19.434 24.0833 17.5002C24.0833 15.5663 23.3371 13.7116 22.0087 12.3442C20.6803 10.9767 18.8786 10.21 17 10.21ZM17 13.1266C17.5646 13.1159 18.1255 13.2211 18.6501 13.4361C19.1747 13.6511 19.6525 13.9715 20.0554 14.3787C20.4584 14.7858 20.7785 15.2716 20.997 15.8075C21.2156 16.3435 21.3282 16.9189 21.3283 17.5002C21.3284 18.0814 21.216 18.6569 20.9976 19.1929C20.7792 19.7289 20.4593 20.2148 20.0565 20.6221C19.6536 21.0294 19.176 21.35 18.6514 21.5651C18.1269 21.7803 17.566 21.8857 17.0014 21.8752C15.8743 21.8752 14.7932 21.4142 13.9962 20.5938C13.1992 19.7733 12.7514 18.6605 12.7514 17.5002C12.7514 16.3399 13.1992 15.2271 13.9962 14.4066C14.7932 13.5861 15.8743 13.1252 17.0014 13.1252L17 13.1266ZM24.4375 8.02247C23.9805 8.0413 23.5483 8.24143 23.2314 8.58097C22.9145 8.9205 22.7375 9.37308 22.7375 9.84392C22.7375 10.3148 22.9145 10.7674 23.2314 11.1069C23.5483 11.4464 23.9805 11.6466 24.4375 11.6654C24.9072 11.6654 25.3576 11.4733 25.6897 11.1315C26.0218 10.7896 26.2083 10.3259 26.2083 9.84246C26.2083 9.359 26.0218 8.89533 25.6897 8.55347C25.3576 8.21161 24.9072 8.01955 24.4375 8.01955V8.02247Z" fill="white"/>
</svg>
