<svg width="180" height="180" viewBox="0 0 180 180" fill="none" xmlns="http://www.w3.org/2000/svg">
<path d="M109.949 22.6914C111.882 22.6914 113.449 24.2584 113.449 26.1914V30.4575C113.935 29.7912 114.654 29.2981 115.505 29.1057C117.101 28.745 118.733 29.5372 119.437 31.0136C122.447 37.3297 125.063 44.9777 127.757 52.9423C127.871 53.2805 127.986 53.6194 128.101 53.959C130.715 61.6918 133.447 69.7742 136.777 77.6506C143.747 94.1348 153.094 109.101 168.546 117.32C169.964 118.075 170.687 119.698 170.298 121.257C170.14 121.891 169.814 122.449 169.376 122.887H170.246C171.371 122.887 172.428 123.428 173.086 124.34C173.743 125.253 173.922 126.426 173.567 127.493L164.427 154.915C163.95 156.345 162.613 157.309 161.106 157.309H46.3166C45.5593 157.309 44.8225 157.063 44.2166 156.609L7.65411 129.187C6.44891 128.283 5.95734 126.709 6.43373 125.28C6.91013 123.851 8.24762 122.887 9.75412 122.887H28.0227C27.8495 122.714 27.6933 122.521 27.5575 122.312C24.9323 118.255 24.343 112.092 25.5145 105.257C26.7115 98.2731 29.8276 90.0379 35.3515 81.3432C46.1931 64.2784 66.3883 45.3072 100.121 30.237V26.1914C100.121 24.2584 101.688 22.6914 103.621 22.6914H109.949ZM113.804 122.887C113.675 122.758 113.557 122.62 113.449 122.473V122.887H113.804ZM100.121 52.5127C96.8654 63.0622 94.4434 73.9968 93.7 83.9566C92.7331 96.9097 94.6482 107.153 100.121 113.303V52.5127Z" fill="#95BEF2" stroke="white" stroke-width="7" stroke-linejoin="round"/>
</svg>
