<svg width="169" height="169" viewBox="0 0 169 169" fill="none" xmlns="http://www.w3.org/2000/svg">
<g clip-path="url(#clip0_859_160)">
<path d="M142.111 128.865C126.998 131.927 116.034 142.438 106.726 157.453L100.727 156.61C96.0706 139.784 91.6279 123.598 80.2365 112.232C66.7593 119.948 58.2412 133.702 50.0037 148.715L43.9854 148.021C38.7471 129.893 27.8287 119.51 15.817 109.277L16.599 103.742C31.5558 97.4521 45.7409 91.2096 55.8498 80.274C49.9578 66.7818 35.808 58.6916 22.9181 48.1825L24.5128 42.3032C44.4871 39.4673 56.5889 29.5747 62.5298 11.3393L68.9129 11.6265C72.3705 29.3523 78.5235 44.2535 88.4371 55.2594C100.817 45.5571 111.695 33.5095 121.285 19.7541L127.198 21.1957C129.658 42.7477 141.468 48.9857 152.624 59.8595L151.393 65.3324C135.663 70.5954 121.348 76.6674 111.345 86.8582C117.605 101.01 130.451 111.817 143.665 123.286L142.111 128.865Z" fill="#E5EFFC"/>
</g>
<defs>
<clipPath id="clip0_859_160">
<rect width="150.394" height="150.733" fill="white" transform="matrix(-0.121757 -0.99256 0.992628 -0.121202 18.5507 168.22)"/>
</clipPath>
</defs>
</svg>
