<svg width="50" height="44" viewBox="0 0 50 44" fill="none" xmlns="http://www.w3.org/2000/svg">
<path d="M2.5 19.75L7.1125 19.975C7.3851 17.5123 8.16574 15.1329 9.40506 12.9873C10.6444 10.8417 12.3154 8.97664 14.3125 7.51L11.7925 3.64C11.185 2.56 11.5 1.1875 12.625 0.557496C13.75 -0.0500039 15.0775 0.309996 15.7075 1.39L17.8 5.485C20.0745 4.50717 22.5243 4.00287 25 4.00287C27.4757 4.00287 29.9255 4.50717 32.2 5.485L34.2925 1.39C34.9225 0.309996 36.25 -0.0500039 37.375 0.557496C38.5 1.1875 38.815 2.56 38.2075 3.64L35.6875 7.51C37.6846 8.97664 39.3556 10.8417 40.5949 12.9873C41.8343 15.1329 42.6149 17.5123 42.8875 19.975L47.5 19.75C48.0967 19.75 48.669 19.987 49.091 20.409C49.5129 20.831 49.75 21.4033 49.75 22C49.75 22.5967 49.5129 23.169 49.091 23.591C48.669 24.0129 48.0967 24.25 47.5 24.25L42.8875 24.025C42.6149 26.4877 41.8343 28.8671 40.5949 31.0127C39.3556 33.1583 37.6846 35.0233 35.6875 36.49L38.2075 40.36C38.815 41.44 38.5 42.8125 37.375 43.4425C36.25 44.05 34.9225 43.69 34.2925 42.61L32.2 38.515C29.9255 39.4928 27.4757 39.9971 25 39.9971C22.5243 39.9971 20.0745 39.4928 17.8 38.515L15.7075 42.61C15.0775 43.69 13.75 44.05 12.625 43.4425C11.5 42.8125 11.185 41.44 11.7925 40.36L14.3125 36.49C12.3154 35.0233 10.6444 33.1583 9.40506 31.0127C8.16574 28.8671 7.3851 26.4877 7.1125 24.025L2.5 24.25C1.90326 24.25 1.33097 24.0129 0.90901 23.591C0.487053 23.169 0.25 22.5967 0.25 22C0.25 21.4033 0.487053 20.831 0.90901 20.409C1.33097 19.987 1.90326 19.75 2.5 19.75ZM18.4075 20.5375C18.7 19.165 19.4425 17.95 20.5 17.0275L16.765 11.3125C13.9421 13.4791 12.09 16.6737 11.6125 20.2L18.4075 20.5375ZM25 15.25C25.72 15.25 26.395 15.3625 27.025 15.565L30.13 9.5125C28.555 8.86 26.8225 8.5 25 8.5C23.1775 8.5 21.445 8.86 19.87 9.5125L22.975 15.565C23.605 15.3625 24.28 15.25 25 15.25ZM31.5925 20.5375L38.3875 20.2C37.91 16.6737 36.0579 13.4791 33.235 11.3125L29.5 17.0275C30.5575 17.95 31.3 19.165 31.5925 20.5375ZM31.5925 23.4625C31.3 24.835 30.5575 26.05 29.5 26.9725L33.235 32.6875C36.0579 30.5209 37.91 27.3263 38.3875 23.8L31.5925 23.4625ZM25 28.75C24.28 28.75 23.605 28.6375 22.9525 28.435L19.87 34.4875C21.445 35.14 23.1775 35.5 25 35.5C26.8225 35.5 28.555 35.14 30.13 34.4875L27.0475 28.435C26.395 28.6375 25.72 28.75 25 28.75ZM18.4075 23.4625L11.6125 23.8C12.1075 27.4 13.9975 30.5725 16.765 32.6875L20.5 26.9725C19.4425 26.05 18.7 24.835 18.4075 23.4625Z" fill="#DAEAFE"/>
</svg>
