<svg width="39" height="46" viewBox="0 0 39 46" fill="none" xmlns="http://www.w3.org/2000/svg">
<path d="M20.1158 25.4975L19.7333 25.25C19.3214 25.0805 18.8685 25.0371 18.4319 25.1252C17.9953 25.2133 17.5947 25.429 17.2808 25.745C17.0637 25.9446 16.8945 26.1908 16.7858 26.465C16.6676 26.7425 16.6064 27.0409 16.6058 27.3425C16.6094 27.6365 16.6705 27.927 16.7858 28.1975C17.0276 28.7382 17.4602 29.1707 18.0008 29.4125C18.2713 29.5278 18.5618 29.5889 18.8558 29.5925C19.1569 29.5869 19.4544 29.5259 19.7333 29.4125C20.0034 29.2961 20.248 29.128 20.4533 28.9175C20.8724 28.4959 21.1076 27.9257 21.1076 27.3313C21.1076 26.7368 20.8724 26.1666 20.4533 25.745L20.1158 25.4975ZM18.8558 9.5C17.7823 9.48792 16.7241 9.75539 15.7852 10.2761C14.8463 10.7968 14.059 11.5529 13.5008 12.47C13.338 12.7261 13.2287 13.0125 13.1795 13.3119C13.1302 13.6113 13.1421 13.9176 13.2142 14.2124C13.2864 14.5071 13.4175 14.7842 13.5996 15.027C13.7816 15.2698 14.0109 15.4732 14.2736 15.6251C14.5364 15.7769 14.8271 15.8741 15.1283 15.9107C15.4296 15.9472 15.7351 15.9225 16.0265 15.838C16.318 15.7534 16.5893 15.6108 16.8242 15.4187C17.0591 15.2265 17.2527 14.9889 17.3933 14.72C17.5593 14.4892 17.7796 14.3028 18.0346 14.1772C18.2897 14.0517 18.5717 13.9908 18.8558 14C19.3034 14 19.7326 14.1778 20.0491 14.4943C20.3655 14.8107 20.5433 15.2399 20.5433 15.6875C20.5433 16.1351 20.3655 16.5643 20.0491 16.8807C19.7326 17.1972 19.3034 17.375 18.8558 17.375C18.2591 17.375 17.6868 17.6121 17.2648 18.034C16.8429 18.456 16.6058 19.0283 16.6058 19.625C16.6058 20.2217 16.8429 20.794 17.2648 21.216C17.6868 21.6379 18.2591 21.875 18.8558 21.875C20.4969 21.875 22.0707 21.2231 23.2311 20.0627C24.3914 18.9023 25.0433 17.3285 25.0433 15.6875C25.0433 14.0465 24.3914 12.4727 23.2311 11.3123C22.0707 10.1519 20.4969 9.5 18.8558 9.5ZM38.1608 17.78C37.8625 14.4829 36.7134 11.3196 34.8259 8.59979C32.9385 5.87994 30.3773 3.69662 27.393 2.26343C24.4087 0.830241 21.1035 0.19627 17.8007 0.423542C14.4979 0.650814 11.3107 1.73154 8.55083 3.56C6.18652 5.14095 4.2017 7.22592 2.73895 9.66513C1.27621 12.1043 0.371844 14.8372 0.0908309 17.6675C-0.184834 20.4792 0.168847 23.3171 1.12621 25.9751C2.08358 28.6332 3.62062 31.0448 5.62583 33.035L17.5508 44.9825C17.76 45.1934 18.0089 45.3608 18.283 45.475C18.5572 45.5892 18.8513 45.648 19.1483 45.648C19.4454 45.648 19.7394 45.5892 20.0136 45.475C20.2878 45.3608 20.5367 45.1934 20.7458 44.9825L32.6258 33.035C34.631 31.0448 36.1681 28.6332 37.1255 25.9751C38.0828 23.3171 38.4365 20.4792 38.1608 17.6675V17.78ZM29.4758 29.8625L19.1258 40.2125L8.77583 29.8625C7.25053 28.3371 6.08214 26.4927 5.35463 24.462C4.62713 22.4312 4.3586 20.2644 4.56833 18.1175C4.77942 15.9375 5.4723 13.8316 6.59686 11.9521C7.72143 10.0727 9.24958 8.46659 11.0708 7.25C13.458 5.66428 16.26 4.81842 19.1258 4.81842C21.9916 4.81842 24.7937 5.66428 27.1808 7.25C28.9966 8.46189 30.5213 10.0609 31.6456 11.9321C32.7699 13.8033 33.4658 15.9004 33.6833 18.0725C33.8999 20.2267 33.6347 22.4021 32.907 24.4412C32.1793 26.4803 31.0073 28.3321 29.4758 29.8625Z" fill="#DAEAFE"/>
</svg>
