<svg width="204" height="204" viewBox="0 0 204 204" fill="none" xmlns="http://www.w3.org/2000/svg">
<path d="M17 93.5L34.425 94.35C35.4548 85.0463 38.4039 76.0575 43.0858 67.952C47.7677 59.8465 54.0805 52.8006 61.625 47.26L52.105 32.64C49.81 28.56 51 23.375 55.25 20.995C59.5 18.7 64.515 20.06 66.895 24.14L74.8 39.61C83.3924 35.916 92.6472 34.0109 102 34.0109C111.353 34.0109 120.608 35.916 129.2 39.61L137.105 24.14C139.485 20.06 144.5 18.7 148.75 20.995C153 23.375 154.19 28.56 151.895 32.64L142.375 47.26C149.92 52.8006 156.232 59.8465 160.914 67.952C165.596 76.0575 168.545 85.0463 169.575 94.35L187 93.5C189.254 93.5 191.416 94.3955 193.01 95.9896C194.604 97.5836 195.5 99.7456 195.5 102C195.5 104.254 194.604 106.416 193.01 108.01C191.416 109.604 189.254 110.5 187 110.5L169.575 109.65C168.545 118.954 165.596 127.942 160.914 136.048C156.232 144.153 149.92 151.199 142.375 156.74L151.895 171.36C154.19 175.44 153 180.625 148.75 183.005C144.5 185.3 139.485 183.94 137.105 179.86L129.2 164.39C120.608 168.084 111.353 169.989 102 169.989C92.6472 169.989 83.3924 168.084 74.8 164.39L66.895 179.86C64.515 183.94 59.5 185.3 55.25 183.005C51 180.625 49.81 175.44 52.105 171.36L61.625 156.74C54.0805 151.199 47.7677 144.153 43.0858 136.048C38.4039 127.942 35.4548 118.954 34.425 109.65L17 110.5C14.7457 110.5 12.5837 109.604 10.9896 108.01C9.39553 106.416 8.5 104.254 8.5 102C8.5 99.7456 9.39553 97.5836 10.9896 95.9896C12.5837 94.3955 14.7457 93.5 17 93.5ZM77.095 96.475C78.2 91.29 81.005 86.7 85 83.215L70.89 61.625C60.2256 69.8098 53.2289 81.8783 51.425 95.2L77.095 96.475ZM102 76.5C104.72 76.5 107.27 76.925 109.65 77.69L121.38 54.825C115.43 52.36 108.885 51 102 51C95.115 51 88.57 52.36 82.62 54.825L94.35 77.69C96.73 76.925 99.28 76.5 102 76.5ZM126.905 96.475L152.575 95.2C150.771 81.8783 143.774 69.8098 133.11 61.625L119 83.215C122.995 86.7 125.8 91.29 126.905 96.475ZM126.905 107.525C125.8 112.71 122.995 117.3 119 120.785L133.11 142.375C143.774 134.19 150.771 122.122 152.575 108.8L126.905 107.525ZM102 127.5C99.28 127.5 96.73 127.075 94.265 126.31L82.62 149.175C88.57 151.64 95.115 153 102 153C108.885 153 115.43 151.64 121.38 149.175L109.735 126.31C107.27 127.075 104.72 127.5 102 127.5ZM77.095 107.525L51.425 108.8C53.295 122.4 60.435 134.385 70.89 142.375L85 120.785C81.005 117.3 78.2 112.71 77.095 107.525Z" fill="#E5EFFC"/>
</svg>
