<svg width="46" height="46" viewBox="0 0 46 46" fill="none" xmlns="http://www.w3.org/2000/svg">
<g clip-path="url(#clip0_876_199)">
<path d="M23 46C10.2968 46 0 35.7032 0 23C0 10.2968 10.2968 0 23 0C35.7032 0 46 10.2968 46 23C46 35.7032 35.7032 46 23 46ZM22.6406 5.75C13.3113 5.75 5.75 13.3113 5.75 22.6406C5.75 31.97 13.3113 39.5312 22.6406 39.5312C31.97 39.5312 39.5312 31.97 39.5312 22.6406C39.5312 18.161 37.7517 13.8648 34.5841 10.6971C31.4165 7.52954 27.1203 5.75 22.6406 5.75ZM22.6406 35.3194C19.278 35.3194 16.0531 33.9836 13.6754 31.6059C11.2977 29.2281 9.96187 26.0032 9.96187 22.6406C9.96187 19.278 11.2977 16.0531 13.6754 13.6754C16.0531 11.2977 19.278 9.96187 22.6406 9.96187C26.0032 9.96187 29.2281 11.2977 31.6059 13.6754C33.9836 16.0531 35.3194 19.278 35.3194 22.6406C35.3194 26.0032 33.9836 29.2281 31.6059 31.6059C29.2281 33.9836 26.0032 35.3194 22.6406 35.3194ZM16.4287 22.655L22.655 30.98L28.8525 22.655L22.655 14.3156L16.4287 22.655Z" fill="#95BEF2"/>
</g>
<defs>
<clipPath id="clip0_876_199">
<rect width="46" height="46" fill="white"/>
</clipPath>
</defs>
</svg>
