<svg width="307" height="43" viewBox="0 0 307 43" fill="none" xmlns="http://www.w3.org/2000/svg">
<path d="M60.036 31.168C59.4947 31.168 58.9347 31.1493 58.356 31.112C57.796 31.0933 57.2173 31.056 56.62 31C56.0413 30.9253 55.4907 30.8507 54.968 30.776C54.4453 30.6827 53.9693 30.58 53.54 30.468V27.192C54.1 27.248 54.7347 27.2947 55.444 27.332C56.1533 27.3693 56.8907 27.3973 57.656 27.416C58.4213 27.4347 59.1493 27.444 59.84 27.444C60.5493 27.444 61.156 27.388 61.66 27.276C62.1827 27.1453 62.584 26.9307 62.864 26.632C63.144 26.3147 63.284 25.8853 63.284 25.344V24.588C63.284 23.972 63.0973 23.5053 62.724 23.188C62.3693 22.852 61.856 22.684 61.184 22.684H59.42C57.4413 22.684 55.92 22.2547 54.856 21.396C53.8107 20.5187 53.288 19.0347 53.288 16.944V15.936C53.288 13.92 53.8667 12.4453 55.024 11.512C56.1813 10.5787 57.8333 10.112 59.98 10.112C60.7453 10.112 61.5013 10.1493 62.248 10.224C63.0133 10.2987 63.7413 10.392 64.432 10.504C65.1413 10.5973 65.748 10.7 66.252 10.812V14.088C65.3933 14.032 64.432 13.976 63.368 13.92C62.3227 13.864 61.352 13.836 60.456 13.836C59.8213 13.836 59.252 13.9013 58.748 14.032C58.2627 14.144 57.8893 14.368 57.628 14.704C57.3667 15.04 57.236 15.516 57.236 16.132V16.692C57.236 17.42 57.4413 17.9427 57.852 18.26C58.2627 18.5773 58.8693 18.736 59.672 18.736H61.716C62.9667 18.736 63.9933 18.9693 64.796 19.436C65.6173 19.884 66.224 20.5093 66.616 21.312C67.0267 22.1147 67.232 23.0293 67.232 24.056V25.232C67.232 26.856 66.924 28.0973 66.308 28.956C65.7107 29.8147 64.8707 30.4027 63.788 30.72C62.724 31.0187 61.4733 31.168 60.036 31.168ZM77.2523 31.168C76.0389 31.168 74.9656 31.028 74.0323 30.748C73.1176 30.468 72.3336 29.9547 71.6803 29.208C71.0456 28.4613 70.5603 27.3973 70.2243 26.016C69.9069 24.616 69.7483 22.8053 69.7483 20.584C69.7483 18.4373 69.9163 16.6827 70.2523 15.32C70.6069 13.9387 71.1109 12.8747 71.7643 12.128C72.4176 11.3627 73.2109 10.8307 74.1443 10.532C75.0776 10.2333 76.1323 10.084 77.3083 10.084C78.2416 10.084 79.1096 10.14 79.9123 10.252C80.7336 10.3453 81.4709 10.4667 82.1243 10.616C82.7776 10.7467 83.3283 10.896 83.7763 11.064V14.284C83.4403 14.2093 82.9829 14.1347 82.4043 14.06C81.8443 13.9853 81.2003 13.9293 80.4723 13.892C79.7443 13.836 78.9789 13.808 78.1763 13.808C77.3923 13.808 76.7203 13.9013 76.1603 14.088C75.6189 14.256 75.1803 14.5827 74.8443 15.068C74.5269 15.5347 74.2843 16.216 74.1163 17.112C73.9669 18.008 73.8923 19.1747 73.8923 20.612C73.8923 21.9933 73.9576 23.132 74.0883 24.028C74.2376 24.924 74.4709 25.624 74.7883 26.128C75.1056 26.6133 75.5349 26.9587 76.0763 27.164C76.6363 27.3507 77.3363 27.444 78.1763 27.444C79.5949 27.444 80.7429 27.416 81.6203 27.36C82.5163 27.304 83.2349 27.2387 83.7763 27.164V30.356C83.2723 30.524 82.6936 30.6733 82.0403 30.804C81.3869 30.916 80.6683 31 79.8843 31.056C79.1003 31.1307 78.2229 31.168 77.2523 31.168ZM85.3705 31L91.8665 10.28H97.1025L103.599 31H99.2865L97.9705 26.66H90.9145L89.6265 31H85.3705ZM91.8945 22.936H96.9905L94.4425 13.836L91.8945 22.936ZM110.05 31L103.554 10.28H107.838L112.682 26.52L117.526 10.28H121.782L115.286 31H110.05ZM128.367 31.14C127.919 31.14 127.406 31.0933 126.827 31C126.248 30.9253 125.688 30.7387 125.147 30.44C124.624 30.1413 124.186 29.6933 123.831 29.096C123.495 28.48 123.327 27.64 123.327 26.576V15.012C123.327 14.0973 123.467 13.332 123.747 12.716C124.027 12.1 124.4 11.6147 124.867 11.26C125.334 10.9053 125.847 10.6533 126.407 10.504C126.967 10.3547 127.518 10.28 128.059 10.28C129.459 10.28 130.691 10.2987 131.755 10.336C132.838 10.3733 133.808 10.42 134.667 10.476C135.526 10.5133 136.31 10.5693 137.019 10.644V14.116H129.291C128.712 14.116 128.264 14.256 127.947 14.536C127.63 14.816 127.471 15.2453 127.471 15.824V18.82L135.675 19.044V22.32L127.471 22.544V25.4C127.471 25.8853 127.546 26.268 127.695 26.548C127.863 26.8093 128.078 26.996 128.339 27.108C128.619 27.2013 128.908 27.248 129.207 27.248H137.019V30.72C136.198 30.8133 135.283 30.888 134.275 30.944C133.286 31 132.278 31.0467 131.251 31.084C130.243 31.1213 129.282 31.14 128.367 31.14ZM140.174 31V10.28H143.506L152.186 23.944V10.28H156.33V31H152.998L144.346 17.336V31H140.174ZM165.629 31.14C164.322 31.14 163.249 30.8973 162.409 30.412C161.588 29.908 160.944 29.1987 160.477 28.284C160.01 27.3507 159.684 26.24 159.497 24.952C159.31 23.664 159.217 22.2267 159.217 20.64C159.217 18.9787 159.32 17.4947 159.525 16.188C159.749 14.8813 160.132 13.78 160.673 12.884C161.233 11.9693 162.008 11.2787 162.997 10.812C164.005 10.3267 165.293 10.084 166.861 10.084C167.813 10.084 168.681 10.1213 169.465 10.196C170.268 10.2707 171.024 10.3827 171.733 10.532C172.442 10.6627 173.152 10.8213 173.861 11.008V14.2C173.469 14.144 172.946 14.088 172.293 14.032C171.64 13.976 170.912 13.9293 170.109 13.892C169.306 13.836 168.476 13.808 167.617 13.808C166.441 13.808 165.545 14.0227 164.929 14.452C164.332 14.8627 163.921 15.572 163.697 16.58C163.473 17.5693 163.361 18.932 163.361 20.668C163.361 22.012 163.417 23.1133 163.529 23.972C163.66 24.8307 163.865 25.512 164.145 26.016C164.425 26.5013 164.789 26.8467 165.237 27.052C165.704 27.2387 166.273 27.332 166.945 27.332C167.71 27.332 168.438 27.2667 169.129 27.136C169.838 27.0053 170.408 26.8747 170.837 26.744V22.712H167.113V19.436C167.505 19.38 167.972 19.3333 168.513 19.296C169.054 19.2587 169.614 19.2307 170.193 19.212C170.79 19.1747 171.36 19.156 171.901 19.156C172.498 19.156 173.03 19.1653 173.497 19.184C173.982 19.184 174.421 19.2027 174.813 19.24V31H171.705L171.145 29.6C170.604 29.9173 169.838 30.2533 168.849 30.608C167.86 30.9627 166.786 31.14 165.629 31.14ZM183.437 31.14C182.989 31.14 182.476 31.0933 181.897 31C181.319 30.9253 180.759 30.7387 180.217 30.44C179.695 30.1413 179.256 29.6933 178.901 29.096C178.565 28.48 178.397 27.64 178.397 26.576V15.012C178.397 14.0973 178.537 13.332 178.817 12.716C179.097 12.1 179.471 11.6147 179.937 11.26C180.404 10.9053 180.917 10.6533 181.477 10.504C182.037 10.3547 182.588 10.28 183.129 10.28C184.529 10.28 185.761 10.2987 186.825 10.336C187.908 10.3733 188.879 10.42 189.737 10.476C190.596 10.5133 191.38 10.5693 192.089 10.644V14.116H184.361C183.783 14.116 183.335 14.256 183.017 14.536C182.7 14.816 182.541 15.2453 182.541 15.824V18.82L190.745 19.044V22.32L182.541 22.544V25.4C182.541 25.8853 182.616 26.268 182.765 26.548C182.933 26.8093 183.148 26.996 183.409 27.108C183.689 27.2013 183.979 27.248 184.277 27.248H192.089V30.72C191.268 30.8133 190.353 30.888 189.345 30.944C188.356 31 187.348 31.0467 186.321 31.084C185.313 31.1213 184.352 31.14 183.437 31.14ZM195.105 31V10.28H203.673C204.494 10.28 205.259 10.3827 205.969 10.588C206.678 10.7747 207.303 11.1107 207.845 11.596C208.386 12.0813 208.806 12.7533 209.105 13.612C209.422 14.4707 209.581 15.572 209.581 16.916C209.581 17.868 209.487 18.68 209.301 19.352C209.114 20.024 208.862 20.5747 208.545 21.004C208.246 21.4333 207.901 21.7787 207.509 22.04C207.117 22.3013 206.715 22.516 206.305 22.684L210.169 31H205.941L202.609 23.328C202.385 23.328 202.123 23.328 201.825 23.328C201.545 23.3093 201.255 23.3 200.957 23.3C200.658 23.3 200.359 23.3 200.061 23.3C199.762 23.3 199.491 23.2907 199.249 23.272V31H195.105ZM199.249 19.996H202.945C203.318 19.996 203.654 19.9493 203.953 19.856C204.251 19.7627 204.513 19.604 204.737 19.38C204.961 19.1373 205.129 18.82 205.241 18.428C205.371 18.036 205.437 17.532 205.437 16.916C205.437 16.3373 205.371 15.8613 205.241 15.488C205.129 15.096 204.961 14.7973 204.737 14.592C204.513 14.368 204.251 14.2187 203.953 14.144C203.654 14.0507 203.318 14.004 202.945 14.004H199.249V19.996ZM232.478 36.516C231.582 36.516 230.723 36.3573 229.902 36.04C229.081 35.7227 228.399 35.228 227.858 34.556C227.317 33.9027 227.027 33.0627 226.99 32.036H229.846C229.977 32.5773 230.275 32.96 230.742 33.184C231.227 33.4267 231.741 33.548 232.282 33.548C232.581 33.548 232.879 33.5107 233.178 33.436C233.477 33.38 233.747 33.324 233.99 33.268V36.32C233.747 36.3573 233.495 36.3947 233.234 36.432C232.991 36.488 232.739 36.516 232.478 36.516ZM227.886 31.168C226.467 31.168 225.226 31.0373 224.162 30.776C223.098 30.496 222.202 29.992 221.474 29.264C220.765 28.5173 220.233 27.4533 219.878 26.072C219.523 24.6907 219.346 22.8893 219.346 20.668C219.346 18.4467 219.523 16.6453 219.878 15.264C220.251 13.864 220.793 12.7907 221.502 12.044C222.211 11.2973 223.098 10.784 224.162 10.504C225.226 10.224 226.467 10.084 227.886 10.084C229.305 10.084 230.546 10.224 231.61 10.504C232.674 10.784 233.561 11.2973 234.27 12.044C234.979 12.7907 235.511 13.864 235.866 15.264C236.221 16.6453 236.398 18.4467 236.398 20.668C236.398 22.8893 236.221 24.6907 235.866 26.072C235.511 27.4533 234.979 28.5173 234.27 29.264C233.561 29.992 232.674 30.496 231.61 30.776C230.546 31.0373 229.305 31.168 227.886 31.168ZM227.886 27.444C228.726 27.444 229.426 27.3507 229.986 27.164C230.546 26.9773 230.985 26.6507 231.302 26.184C231.638 25.6987 231.881 25.0173 232.03 24.14C232.179 23.244 232.254 22.0867 232.254 20.668C232.254 19.1747 232.179 17.98 232.03 17.084C231.881 16.188 231.638 15.5067 231.302 15.04C230.985 14.5547 230.546 14.228 229.986 14.06C229.426 13.892 228.726 13.808 227.886 13.808C227.083 13.808 226.402 13.892 225.842 14.06C225.282 14.228 224.825 14.5547 224.47 15.04C224.134 15.5067 223.882 16.188 223.714 17.084C223.565 17.98 223.49 19.1747 223.49 20.668C223.49 22.0867 223.555 23.244 223.686 24.14C223.835 25.0173 224.078 25.6987 224.414 26.184C224.75 26.6507 225.198 26.9773 225.758 27.164C226.337 27.3507 227.046 27.444 227.886 27.444ZM247.268 31.14C246.129 31.14 245.065 31.0467 244.076 30.86C243.087 30.6547 242.219 30.3093 241.472 29.824C240.744 29.32 240.175 28.6293 239.764 27.752C239.372 26.856 239.176 25.7173 239.176 24.336V10.28H243.32V24.308C243.32 25.0733 243.469 25.68 243.768 26.128C244.085 26.576 244.533 26.9027 245.112 27.108C245.709 27.3133 246.428 27.416 247.268 27.416C248.089 27.416 248.789 27.3133 249.368 27.108C249.965 26.9027 250.413 26.576 250.712 26.128C251.029 25.68 251.188 25.0733 251.188 24.308V10.28H255.36V24.336C255.36 25.7173 255.155 26.856 254.744 27.752C254.333 28.6293 253.764 29.32 253.036 29.824C252.308 30.3093 251.449 30.6547 250.46 30.86C249.489 31.0467 248.425 31.14 247.268 31.14ZM263.691 31.14C263.243 31.14 262.73 31.0933 262.151 31C261.573 30.9253 261.013 30.7387 260.471 30.44C259.949 30.1413 259.51 29.6933 259.155 29.096C258.819 28.48 258.651 27.64 258.651 26.576V15.012C258.651 14.0973 258.791 13.332 259.071 12.716C259.351 12.1 259.725 11.6147 260.191 11.26C260.658 10.9053 261.171 10.6533 261.731 10.504C262.291 10.3547 262.842 10.28 263.383 10.28C264.783 10.28 266.015 10.2987 267.079 10.336C268.162 10.3733 269.133 10.42 269.991 10.476C270.85 10.5133 271.634 10.5693 272.343 10.644V14.116H264.615C264.037 14.116 263.589 14.256 263.271 14.536C262.954 14.816 262.795 15.2453 262.795 15.824V18.82L270.999 19.044V22.32L262.795 22.544V25.4C262.795 25.8853 262.87 26.268 263.019 26.548C263.187 26.8093 263.402 26.996 263.663 27.108C263.943 27.2013 264.233 27.248 264.531 27.248H272.343V30.72C271.522 30.8133 270.607 30.888 269.599 30.944C268.61 31 267.602 31.0467 266.575 31.084C265.567 31.1213 264.606 31.14 263.691 31.14ZM281.602 31.168C281.061 31.168 280.501 31.1493 279.922 31.112C279.362 31.0933 278.784 31.056 278.186 31C277.608 30.9253 277.057 30.8507 276.534 30.776C276.012 30.6827 275.536 30.58 275.106 30.468V27.192C275.666 27.248 276.301 27.2947 277.01 27.332C277.72 27.3693 278.457 27.3973 279.222 27.416C279.988 27.4347 280.716 27.444 281.406 27.444C282.116 27.444 282.722 27.388 283.226 27.276C283.749 27.1453 284.15 26.9307 284.43 26.632C284.71 26.3147 284.85 25.8853 284.85 25.344V24.588C284.85 23.972 284.664 23.5053 284.29 23.188C283.936 22.852 283.422 22.684 282.75 22.684H280.986C279.008 22.684 277.486 22.2547 276.422 21.396C275.377 20.5187 274.854 19.0347 274.854 16.944V15.936C274.854 13.92 275.433 12.4453 276.59 11.512C277.748 10.5787 279.4 10.112 281.546 10.112C282.312 10.112 283.068 10.1493 283.814 10.224C284.58 10.2987 285.308 10.392 285.998 10.504C286.708 10.5973 287.314 10.7 287.818 10.812V14.088C286.96 14.032 285.998 13.976 284.934 13.92C283.889 13.864 282.918 13.836 282.022 13.836C281.388 13.836 280.818 13.9013 280.314 14.032C279.829 14.144 279.456 14.368 279.194 14.704C278.933 15.04 278.802 15.516 278.802 16.132V16.692C278.802 17.42 279.008 17.9427 279.418 18.26C279.829 18.5773 280.436 18.736 281.238 18.736H283.282C284.533 18.736 285.56 18.9693 286.362 19.436C287.184 19.884 287.79 20.5093 288.182 21.312C288.593 22.1147 288.798 23.0293 288.798 24.056V25.232C288.798 26.856 288.49 28.0973 287.874 28.956C287.277 29.8147 286.437 30.4027 285.354 30.72C284.29 31.0187 283.04 31.168 281.602 31.168ZM296.187 31V14.004H290.503V10.28H306.043V14.004H300.331V31H296.187Z" fill="#29257B"/>
<g clip-path="url(#clip0_896_204)">
<path d="M20 40C8.95375 40 0 31.0462 0 20C0 8.95375 8.95375 0 20 0C31.0462 0 40 8.95375 40 20C40 31.0462 31.0462 40 20 40ZM19.6875 5C11.575 5 5 11.575 5 19.6875C5 27.8 11.575 34.375 19.6875 34.375C27.8 34.375 34.375 27.8 34.375 19.6875C34.375 15.7921 32.8276 12.0563 30.0731 9.30187C27.3187 6.54743 23.5829 5 19.6875 5ZM19.6875 30.7125C16.7635 30.7125 13.9592 29.5509 11.8916 27.4834C9.82406 25.4158 8.6625 22.6115 8.6625 19.6875C8.6625 16.7635 9.82406 13.9592 11.8916 11.8916C13.9592 9.82406 16.7635 8.6625 19.6875 8.6625C22.6115 8.6625 25.4158 9.82406 27.4834 11.8916C29.5509 13.9592 30.7125 16.7635 30.7125 19.6875C30.7125 22.6115 29.5509 25.4158 27.4834 27.4834C25.4158 29.5509 22.6115 30.7125 19.6875 30.7125ZM14.2859 19.7L19.7 26.9391L25.0891 19.7L19.7 12.4484L14.2859 19.7Z" fill="#95BEF2"/>
</g>
<defs>
<clipPath id="clip0_896_204">
<rect width="40" height="40" fill="white"/>
</clipPath>
</defs>
</svg>
